<svg xmlns="http://www.w3.org/2000/svg" width="180" height="60" viewBox="0 0 180 60">
  <!-- Background (transparent) -->
  
  <!-- Left icon: Leaf with heart shape -->
  <g transform="translate(5, 10)">
    <path d="M20 5 C20 5 8 15 8 22 C8 28 12 32 20 32 C28 32 32 28 32 22 C32 15 20 5 20 5 Z" fill="#10B981"/>
    <path d="M20 8 C20 8 11 16 11 22 C11 27 14 30 20 30 C26 30 29 27 29 22 C29 16 20 8 20 8 Z" fill="#34D399"/>
    <circle cx="20" cy="23" r="3" fill="#059669"/>
  </g>
  
  <!-- Text: One4Health in black -->
  <text x="55" y="38" font-family="Arial, sans-serif" font-size="28" font-weight="700" fill="#000000" letter-spacing="-0.5">One4Health</text>
  
  <!-- Right icon: Small tree/plant -->
  <g transform="translate(150, 18)">
    <circle cx="12" cy="6" r="5" fill="#10B981"/>
    <rect x="10" y="10" width="4" height="12" rx="1" fill="#059669"/>
    <path d="M12 22 L12 16" stroke="#047857" stroke-width="2" stroke-linecap="round" fill="none"/>
    <circle cx="12" cy="5" r="2" fill="#34D399" opacity="0.5"/>
  </g>
</svg>